<svg id="visual" viewBox="0 0 1980 1080" width="1980" height="1080" xmlns="http://www.w3.org/2000/svg" xmlns:xlink="http://www.w3.org/1999/xlink" version="1.1"><rect x="0" y="0" width="1980" height="1080" fill="#0C1621"></rect><defs><linearGradient id="grad1_0" x1="45.5%" y1="0%" x2="100%" y2="100%"><stop offset="13.333333333333334%" stop-color="#00c392" stop-opacity="1"></stop><stop offset="86.66666666666667%" stop-color="#00c392" stop-opacity="1"></stop></linearGradient></defs><defs><linearGradient id="grad1_1" x1="45.5%" y1="0%" x2="100%" y2="100%"><stop offset="13.333333333333334%" stop-color="#00c392" stop-opacity="1"></stop><stop offset="86.66666666666667%" stop-color="#006779" stop-opacity="1"></stop></linearGradient></defs><defs><linearGradient id="grad1_2" x1="45.5%" y1="0%" x2="100%" y2="100%"><stop offset="13.333333333333334%" stop-color="#0c1621" stop-opacity="1"></stop><stop offset="86.66666666666667%" stop-color="#006779" stop-opacity="1"></stop></linearGradient></defs><defs><linearGradient id="grad2_0" x1="0%" y1="0%" x2="54.5%" y2="100%"><stop offset="13.333333333333334%" stop-color="#00c392" stop-opacity="1"></stop><stop offset="86.66666666666667%" stop-color="#00c392" stop-opacity="1"></stop></linearGradient></defs><defs><linearGradient id="grad2_1" x1="0%" y1="0%" x2="54.5%" y2="100%"><stop offset="13.333333333333334%" stop-color="#006779" stop-opacity="1"></stop><stop offset="86.66666666666667%" stop-color="#00c392" stop-opacity="1"></stop></linearGradient></defs><defs><linearGradient id="grad2_2" x1="0%" y1="0%" x2="54.5%" y2="100%"><stop offset="13.333333333333334%" stop-color="#006779" stop-opacity="1"></stop><stop offset="86.66666666666667%" stop-color="#0c1621" stop-opacity="1"></stop></linearGradient></defs><g transform="translate(1980, 0)"><path d="M0 972C-87.3 864.1 -174.6 756.2 -300.4 725.2C-426.2 694.3 -590.6 740.2 -687.3 687.3C-784 634.4 -812.9 482.7 -849 351.7C-885.2 220.7 -928.6 110.3 -972 0L0 0Z" fill="#003c51"></path><path d="M0 648C-58.2 576.1 -116.4 504.1 -200.3 483.5C-284.2 462.8 -393.8 493.5 -458.2 458.2C-522.6 422.9 -541.9 321.8 -566 234.5C-590.1 147.1 -619.1 73.6 -648 0L0 0Z" fill="#00958f"></path><path d="M0 324C-29.1 288 -58.2 252.1 -100.1 241.7C-142.1 231.4 -196.9 246.7 -229.1 229.1C-261.3 211.5 -271 160.9 -283 117.2C-295.1 73.6 -309.5 36.8 -324 0L0 0Z" fill="#00c392"></path></g><g transform="translate(0, 1080)"><path d="M0 -972C104.9 -886.7 209.7 -801.5 308.4 -744.6C407.2 -687.8 499.8 -659.4 606.7 -606.7C713.6 -554 834.7 -477.1 898 -372C961.3 -266.8 966.6 -133.4 972 0L0 0Z" fill="#003c51"></path><path d="M0 -648C69.9 -591.2 139.8 -534.3 205.6 -496.4C271.5 -458.5 333.2 -439.6 404.5 -404.5C475.7 -369.4 556.5 -318.1 598.7 -248C640.8 -177.9 644.4 -88.9 648 0L0 0Z" fill="#00958f"></path><path d="M0 -324C35 -295.6 69.9 -267.2 102.8 -248.2C135.7 -229.3 166.6 -219.8 202.2 -202.2C237.9 -184.7 278.2 -159 299.3 -124C320.4 -88.9 322.2 -44.5 324 0L0 0Z" fill="#00c392"></path></g></svg>